<svg xmlns="http://www.w3.org/2000/svg" width="48" height="48" id="apple"><path d="M37.86 32a7.59 7.59 0 0 1-3.79-4 7.85 7.85 0 0 1-.54-4 6.88 6.88 0 0 1 1.37-3.48 8.48 8.48 0 0 1 2.1-1.89c.19-.13.19-.13 0-.33a8.15 8.15 0 0 0-.95-1.09A8.41 8.41 0 0 0 30.77 15a7.93 7.93 0 0 0-3.05.48c-.83.28-1.66.56-2.47.88a2.82 2.82 0 0 1-2.06 0c-.83-.3-1.65-.64-2.49-.9a7.12 7.12 0 0 0-2.55-.38 8.21 8.21 0 0 0-2.19.45 8.77 8.77 0 0 0-5.23 5.22 12.12 12.12 0 0 0-.81 4.75 14.82 14.82 0 0 0 .18 2.5 22.06 22.06 0 0 0 2 6.35 22.5 22.5 0 0 0 2.7 4.23 9.87 9.87 0 0 0 2 2 3.7 3.7 0 0 0 3.17.6 13.71 13.71 0 0 0 1.74-.59 7.94 7.94 0 0 1 2.67-.66 7.42 7.42 0 0 1 3.25.65 11.66 11.66 0 0 0 1.7.56 4 4 0 0 0 3.28-.57 7.36 7.36 0 0 0 1.54-1.41 20.39 20.39 0 0 0 3.85-6.8c.12-.27.12-.27-.14-.36ZM24.13 14.73a5.48 5.48 0 0 0 2.59-.5 7.08 7.08 0 0 0 2.5-2.08 7.46 7.46 0 0 0 1.72-4.72v-.35c0-.38 0-.39-.41-.34a7.39 7.39 0 0 0-2.5.84A7.77 7.77 0 0 0 24.26 12a5.91 5.91 0 0 0-.32 2.57c.06.12.06.15.19.16Z"></path></svg>